<?xml version="1.0" standalone="no"?><!DOCTYPE svg PUBLIC "-//W3C//DTD SVG 1.1//EN" "http://www.w3.org/Graphics/SVG/1.1/DTD/svg11.dtd"><svg t="1506242154532" class="icon" style="" viewBox="0 0 1024 1024" version="1.1" xmlns="http://www.w3.org/2000/svg" p-id="3143" xmlns:xlink="http://www.w3.org/1999/xlink" width="28" height="28"><defs><style type="text/css"></style></defs><path d="M787.2 1024l-640 0c-57.6 0-102.4-44.8-102.4-102.4L44.8 102.4C44.8 44.8 89.6 0 147.2 0l729.6 0c57.6 0 102.4 44.8 102.4 102.4l0 742.4c0 19.2-12.8 32-32 32s-32-12.8-32-32L915.2 102.4C915.2 83.2 896 64 876.8 64L147.2 64C128 64 108.8 83.2 108.8 102.4l0 819.2C108.8 940.8 128 960 147.2 960l640 0c19.2 0 32 12.8 32 32S806.4 1024 787.2 1024z" p-id="3144" fill="#ffffff"></path><path d="M800 339.2l-576 0C204.8 339.2 192 326.4 192 307.2l0-128c0-19.2 12.8-32 32-32l576 0c19.2 0 32 12.8 32 32l0 128C832 326.4 819.2 339.2 800 339.2zM256 275.2l512 0 0-64L256 211.2 256 275.2z" p-id="3145" fill="#ffffff"></path><path d="M332.8 524.8 249.6 524.8C230.4 524.8 217.6 512 217.6 492.8L217.6 441.6c0-19.2 12.8-32 32-32l89.6 0c19.2 0 32 12.8 32 32l0 51.2C364.8 512 352 524.8 332.8 524.8z" p-id="3146" fill="#ffffff"></path><path d="M556.8 524.8 467.2 524.8C448 524.8 435.2 512 435.2 492.8L435.2 441.6c0-19.2 12.8-32 32-32l89.6 0c19.2 0 32 12.8 32 32l0 51.2C588.8 512 576 524.8 556.8 524.8z" p-id="3147" fill="#ffffff"></path><path d="M774.4 524.8l-89.6 0c-19.2 0-32-12.8-32-32L652.8 441.6c0-19.2 12.8-32 32-32l89.6 0c19.2 0 32 12.8 32 32l0 51.2C806.4 512 793.6 524.8 774.4 524.8z" p-id="3148" fill="#ffffff"></path><path d="M332.8 697.6 249.6 697.6c-19.2 0-32-12.8-32-32L217.6 614.4c0-19.2 12.8-32 32-32l89.6 0c19.2 0 32 12.8 32 32l0 51.2C364.8 684.8 352 697.6 332.8 697.6z" p-id="3149" fill="#ffffff"></path><path d="M556.8 697.6 467.2 697.6c-19.2 0-32-12.8-32-32L435.2 614.4c0-19.2 12.8-32 32-32l89.6 0c19.2 0 32 12.8 32 32l0 51.2C588.8 684.8 576 697.6 556.8 697.6z" p-id="3150" fill="#ffffff"></path><path d="M774.4 697.6l-89.6 0c-19.2 0-32-12.8-32-32L652.8 614.4c0-19.2 12.8-32 32-32l89.6 0c19.2 0 32 12.8 32 32l0 51.2C806.4 684.8 793.6 697.6 774.4 697.6z" p-id="3151" fill="#ffffff"></path><path d="M332.8 876.8 249.6 876.8c-19.2 0-32-12.8-32-32l0-51.2c0-19.2 12.8-32 32-32l89.6 0c19.2 0 32 12.8 32 32l0 51.2C364.8 857.6 352 876.8 332.8 876.8z" p-id="3152" fill="#ffffff"></path><path d="M556.8 876.8 467.2 876.8c-19.2 0-32-12.8-32-32l0-51.2c0-19.2 12.8-32 32-32l89.6 0c19.2 0 32 12.8 32 32l0 51.2C588.8 857.6 576 876.8 556.8 876.8z" p-id="3153" fill="#ffffff"></path><path d="M774.4 876.8l-89.6 0c-19.2 0-32-12.8-32-32l0-51.2c0-19.2 12.8-32 32-32l89.6 0c19.2 0 32 12.8 32 32l0 51.2C806.4 857.6 793.6 876.8 774.4 876.8z" p-id="3154" fill="#ffffff"></path></svg>